# xmcd CD database file
#
# Track frame offsets:
#	150
#	30600
#	63690
#	87852
#	111967
#	133509
#	153104
#	173691
#	196591
#	220274
#	233149
#	254545
#	271911
#	289018
#	297956
#	308647
#
# Disc length: 4493 seconds
#
# Revision: 0
# Processed by: cddbd v1.5.2PL0 Copyright (c) Steve Scherf et al.
# Submitted via: CDex 1.51
#
DISCID=df118b10
DTITLE=Dave Brubeck - Time Out - Time Further Out
DYEAR=1900
DGENRE=Jazz
TTITLE0=Blue Rondo A la Turk
TTITLE1=Strange Meadow Lark
TTITLE2=Take Five
TTITLE3=Three to get ready
TTITLE4=Kathy's Waltz
TTITLE5=Everybodys Jumpin'
TTITLE6=Pick up Sticks
TTITLE7=It's a Raggy Waltz
TTITLE8=Bluette
TTITLE9=Charles Matthew
TTITLE10=Far More Blue
TTITLE11=Far More Drums
TTITLE12=Maori Blues
TTITLE13=Unsquare Dance
TTITLE14=Bru's Boogie
TTITLE15=Blue Shadows in the Street
EXTD=
EXTT0=
EXTT1=
EXTT2=
EXTT3=
EXTT4=
EXTT5=
EXTT6=
EXTT7=
EXTT8=
EXTT9=
EXTT10=
EXTT11=
EXTT12=
EXTT13=
EXTT14=
EXTT15=
PLAYORDER=
